# xmcd CD database file
#
# Track frame offsets:
#	150
#	14472
#	25570
#	39115
#	49487
#	64190
#	77747
#	95495
#	110447
#	126365
#	140732
#	151270
#	164877
#	177130
#
# Disc length: 2576 seconds
#
# Revision: 1
# Processed by: cddbd v1.5.2PL0 Copyright (c) Steve Scherf et al.
# Submitted via: CDex 1.50
#
DISCID=ba0a0e0e
DTITLE=Ricky Skaggs - The Essential Collection
DYEAR=2003
DGENRE=Country
TTITLE0=Don't Get Above Your Raisin'
TTITLE1=You May See Me Walkin'
TTITLE2=Crying My Heart Out Over You
TTITLE3=I Don't Care
TTITLE4=Heartbroke
TTITLE5=I Wouldn't Change You If I Could
TTITLE6=You've Got A Lover
TTITLE7=Don't Cheat In Our Hometown
TTITLE8=Honey (Open That Door)
TTITLE9=I Wonder If I Care As Much
TTITLE10=I'm Tired
TTITLE11=(Angel On My Mind) That's Why I'm Walkin'
TTITLE12=You Can't Do Wrong And Get By (With George Jones)
TTITLE13=Lovin' Only Me
EXTD=YEAR: 2003
EXTT0=
EXTT1=
EXTT2=
EXTT3=
EXTT4=
EXTT5=
EXTT6=
EXTT7=
EXTT8=
EXTT9=
EXTT10=
EXTT11=
EXTT12=
EXTT13=
PLAYORDER=
